<svg xmlns="http://www.w3.org/2000/svg" width="680" height="400" viewBox="0 0 680 400">
  <defs>
    <linearGradient id="bg" x1="0" y1="0" x2="1" y2="1">
      <stop offset="0%" stop-color="#2a1626"/>
      <stop offset="55%" stop-color="#282c33"/>
      <stop offset="100%" stop-color="#2e1a24"/>
    </linearGradient>
    <radialGradient id="glow" cx="0.8" cy="0.15" r="0.9">
      <stop offset="0%" stop-color="#f472b6" stop-opacity="0.28"/>
      <stop offset="60%" stop-color="#f472b6" stop-opacity="0.06"/>
      <stop offset="100%" stop-color="#f472b6" stop-opacity="0"/>
    </radialGradient>
    <pattern id="dots" width="26" height="26" patternUnits="userSpaceOnUse">
      <circle cx="2" cy="2" r="1.2" fill="#ffffff" opacity="0.05"/>
    </pattern>
  </defs>
  <rect width="680" height="400" fill="url(#bg)"/>
  <rect width="680" height="400" fill="url(#dots)"/>
  <rect width="680" height="400" fill="url(#glow)"/>
  <g>
    <rect x="60" y="78" width="560" height="244" rx="14" fill="#1d1119" opacity="0.92" stroke="#f472b6" stroke-opacity="0.45" stroke-width="1.5"/>
    <rect x="60" y="78" width="560" height="38" rx="14" fill="#2b1a24"/>
    <rect x="60" y="102" width="560" height="14" fill="#2b1a24"/>
    <circle cx="86" cy="97" r="6" fill="#ff5f57"/>
    <circle cx="108" cy="97" r="6" fill="#febc2e"/>
    <circle cx="130" cy="97" r="6" fill="#28c840"/>
    <text x="340" y="102" font-family="ui-monospace, Menlo, Consolas, monospace" font-size="13" fill="#a8909c" text-anchor="middle">~/fumi-web</text>
    <text x="92" y="168" font-family="ui-monospace, Menlo, Consolas, monospace" font-size="30" font-weight="bold">
      <tspan fill="#f472b6">$ </tspan><tspan fill="#faf1f6">fumi</tspan>
    </text>
    <text x="92" y="204" font-family="ui-monospace, Menlo, Consolas, monospace" font-size="16" fill="#c7aeba">Focus, feelings and daily routines for kids</text>
    <text x="92" y="228" font-family="ui-monospace, Menlo, Consolas, monospace" font-size="16" fill="#c7aeba">Release QA - COPPA / GDPR / DPDP</text>
    <g font-family="ui-monospace, Menlo, Consolas, monospace" font-size="13">
      <rect x="92" y="258" width="74" height="28" rx="8" fill="#f472b6" opacity="0.16"/>
      <text x="129" y="276" fill="#f472b6" text-anchor="middle">next.js</text>
      <rect x="178" y="258" width="52" height="28" rx="8" fill="#f472b6" opacity="0.16"/>
      <text x="204" y="276" fill="#f472b6" text-anchor="middle">pwa</text>
      <rect x="242" y="258" width="82" height="28" rx="8" fill="#f472b6" opacity="0.16"/>
      <text x="283" y="276" fill="#f472b6" text-anchor="middle">firebase</text>
    </g>
    <text x="92" y="306" font-family="ui-monospace, Menlo, Consolas, monospace" font-size="13" fill="#7a5f6c">syedkm.com</text>
  </g>
</svg>
